<?xml version="1.0" standalone="no"?>
<!DOCTYPE svg PUBLIC "-//W3C//DTD SVG 20010904//EN"
 "http://www.w3.org/TR/2001/REC-SVG-20010904/DTD/svg10.dtd">
<svg version="1.0" xmlns="http://www.w3.org/2000/svg"
 width="300.000000pt" height="300.000000pt" viewBox="0 0 300.000000 300.000000"
 preserveAspectRatio="xMidYMid meet">
<metadata>
Created by potrace 1.11, written by Peter Selinger 2001-2013
</metadata>
<g transform="translate(0.000000,300.000000) scale(0.100000,-0.100000)"
fill="#000000" stroke="none">
<path d="M804 2503 c-98 -170 -249 -432 -336 -583 -87 -151 -162 -282 -167
-290 -12 -20 -188 -323 -219 -377 l-24 -43 299 0 298 0 128 223 c70 122 181
314 247 427 65 113 125 216 133 230 20 37 118 208 266 463 72 125 134 234 137
242 5 13 -33 15 -289 15 l-295 0 -178 -307z"/>
<path d="M1655 2309 c-160 -276 -302 -523 -316 -548 -35 -61 -526 -911 -594
-1026 -84 -144 -271 -468 -284 -492 l-12 -23 300 0 300 0 25 43 c113 195 913
1579 927 1604 10 17 135 234 279 482 143 248 260 453 260 456 0 3 -134 5 -298
5 l-297 0 -290 -501z"/>
<path d="M2146 1472 c-110 -191 -221 -383 -247 -427 -66 -112 -336 -579 -370
-640 -15 -27 -43 -77 -63 -109 -20 -33 -36 -64 -36 -68 0 -5 133 -7 297 -6
l296 3 20 35 c57 104 672 1169 688 1192 11 15 19 29 19 31 0 3 39 71 86 153
47 82 90 157 95 166 9 16 -10 17 -288 17 l-298 0 -199 -347z"/>
</g>
</svg>
